<?xml version="1.0" encoding="utf-8" ?><svg xmlns="http://www.w3.org/2000/svg" xmlns:xlink="http://www.w3.org/1999/xlink" width="1024" height="1024" viewBox="240 250 560 560"><path d="M654.599 265.347C666.025 266.827 676.349 289.835 679.677 299.21C687.01 319.862 687.03 338.963 677.597 358.86C679.988 362.294 682.341 365.752 684.657 369.236C687.765 373.907 707.71 405.659 701.56 408.251C697.857 407.345 692.967 401.826 690.08 398.97C700.247 424.068 705.407 450.931 709.739 477.518L710.502 477.964C740.958 496.008 770.919 529.762 779.841 564.525L780.351 564.835C784.232 567.15 787.135 570.037 787.427 574.84C787.594 577.532 786.644 580.173 784.8 582.142C781.632 585.562 778.479 585.805 774.236 586.079C772.479 600.801 768.432 603.34 756.207 598.987C755.34 598.678 753.241 605.488 751.883 606.644C741.871 615.17 734.273 606.716 733.914 595.584C727.491 589.708 724.047 585.367 718.516 578.645C718.392 582.835 718.112 587.018 717.678 591.187C716.518 602.873 712.412 626.608 703.302 635.372C702.564 636.082 702.747 635.963 701.803 635.846C700.42 633.808 700.901 625.214 700.925 622.294C691.888 643.287 683.05 660.094 662.455 672.717C660.923 673.656 660.203 673.729 658.651 673.346C658.008 671.296 664.55 659.499 666.127 654.499C662.677 657.381 654.963 662.464 651.048 665.204C650.703 682.142 647.943 698.945 642.852 715.103C640.998 720.869 638.548 726.428 636.6 732.073C635.559 735.735 636.784 740.38 634.247 743.566C628.489 750.798 621.789 748.63 615.453 743.648C607.113 752.104 598.599 754.533 591.327 743.128C585.702 746.61 578.153 749.395 572.143 744.506C567.456 740.659 569.5 733.294 568.246 728.7C564.662 715.563 563.07 703.4 561.894 689.869C545.987 692.56 494.724 692.392 478.618 689.624C478.076 702.697 474.766 716.008 472.31 728.966C470.933 736.232 472.873 746.015 461.954 747.362C457.165 747.953 453.776 746.155 450.026 743.263C442.028 753.808 433.849 753.123 425.833 743.161C417.389 750.306 407.057 749.485 404.016 737.296C403.657 735.855 404.08 732.092 404.206 730.456C401.454 725.694 399.387 719.764 397.484 714.561C392.11 698.479 390.457 681.883 389.172 665.055C383.649 661.4 378.337 657.436 373.261 653.182C374.594 657.927 383.003 671.508 381.405 674.215C380.606 674.316 380.049 674.277 379.309 673.842C358.399 661.578 347.609 643.74 339.129 621.792C339.331 625.08 339.933 632.551 337.965 635.095L336.971 635.218C334.436 633.503 333.076 630.209 331.728 627.525C323.847 611.83 323.892 595.384 322.354 578.457C316.748 585.729 313.064 590.109 306.228 596.276C305.79 602.11 304.628 608.049 297.941 609.628C295.437 610.217 292.801 609.772 290.63 608.393C286.669 605.868 285.825 602.806 284.809 598.637C272.198 605.164 267.875 599.379 266.24 586.75C264.537 586.416 262.838 586.062 261.144 585.689C256.599 584.673 255.494 583.675 253.066 579.821C252.279 570.909 252.963 569.125 260.592 564.605C267.618 534.349 287.115 512.154 310.454 492.687C316.906 487.304 324.052 483.029 330.303 478.024L330.711 477.693C336.633 448.973 338.306 428.596 350.662 400.181C348.166 402.578 341.211 410.05 338.155 410.217C333.488 402.721 356.05 366.781 362.794 360.271C347.242 335.996 356.217 293.772 373.616 272.631C388.394 254.675 389.167 278.468 391.541 287.901C394.996 301.633 404.161 307.925 413.521 317.09C442.265 301.386 466.657 298.083 498.367 295.637C493.515 292.435 485.157 288.309 481.236 284.639C498.123 276.631 523.027 282.19 539.117 289.53C543.214 291.399 547.197 295.421 551.598 296.315C557.875 297.59 564.533 297.642 570.857 298.753C591.016 302.113 607.233 307.084 625.339 316.639C631.296 312.275 636.239 308.544 640.687 302.481C643.979 297.952 646.376 292.836 647.748 287.408C649.8 279.531 649.005 270.29 654.599 265.347Z"/><path fill="#6AC8D2" d="M495.333 283.657C506.396 282.446 529.72 285.978 538.579 291.961C553.245 301.866 556.928 298.948 573.642 301.613C627.524 310.204 682.193 350.232 699.132 403.27C696.5 400.753 690.659 394.708 686.912 395.822C685.822 399.33 689.961 406.777 691.339 410.411C707.642 453.397 721.191 556.539 713.722 602.187C712.083 612.202 708.23 621.461 704.104 630.655C704.098 627.782 704.208 616.001 701.524 614.787C698.947 617.352 696.052 627.704 694.308 631.611C687.102 647.755 677.791 658.326 663.814 668.487C665.54 664.791 671.298 653.735 668.761 650.032C665.403 651.675 661.179 655.037 657.954 657.255C652.878 660.736 647.567 663.861 642.059 666.608C608.636 683.292 564.105 689.309 526.999 689.513C485.972 689.737 437.042 685.401 399.361 667.536C390.367 663.273 380.143 655.471 371.776 649.692C370.717 649.925 371.233 649.715 370.364 650.868C369.392 656.474 374.837 665.182 377.727 669.807C362.863 659.614 351.59 646.691 345.034 629.685C343.714 626.261 340.593 616.196 338.92 613.79L338.251 613.817C335.75 616.868 336.204 626.397 336.221 630.281C320.34 602.415 324.931 558.29 327.373 527.068C330.191 491.039 336.117 452.434 346.906 417.791C348.232 413.532 354.875 398.287 353.707 395.182C350.54 395.066 343.093 402.496 340.823 404.664C356.499 354.335 408.499 313.367 459.068 302.81C468.72 300.795 478.806 299.773 488.63 298.996C492.654 298.678 497.941 298.605 501.662 297.007L501.508 295.886C498.526 291.55 491.561 287.685 487.01 285.166C489.494 284.543 492.753 284.09 495.333 283.657Z"/><path d="M599.595 375.752C631.195 374.275 658.029 398.65 659.588 430.246C661.146 461.841 636.841 488.739 605.249 490.38C573.542 492.026 546.524 467.612 544.959 435.9C543.395 404.188 567.879 377.234 599.595 375.752Z"/><path fill="#FEFEFF" d="M596.902 378.744C626.883 375.785 653.593 397.672 656.586 427.649C659.578 457.627 637.72 484.362 607.746 487.387C577.725 490.417 550.94 468.518 547.943 438.494C544.946 408.47 566.874 381.708 596.902 378.744Z"/><path fill="#7C1F7D" d="M589.901 391.724C613.266 389.342 634.151 406.32 636.59 429.68C639.028 453.039 622.101 473.965 598.747 476.46C575.314 478.964 554.301 461.965 551.854 438.526C549.407 415.087 566.456 394.115 589.901 391.724Z"/><path d="M578.083 409.343L577.086 408.891C579.523 405.996 588.386 403.749 592.361 403.424C600.555 402.734 608.682 405.377 614.904 410.754C621.164 416.165 624.983 423.869 625.498 432.128C625.986 440.683 623.027 449.078 617.282 455.437C605.496 468.525 584.51 469.909 571.45 457.837C565.444 452.27 561.934 444.517 561.714 436.331C561.515 429.391 563.335 424.192 567.041 418.492C567.151 415.759 568.417 413.202 570.523 411.457C572.629 409.712 575.377 408.944 578.083 409.343Z"/><path fill="#FEFEFF" d="M567.041 418.492C567.151 415.759 568.417 413.202 570.523 411.457C572.629 409.712 575.377 408.944 578.083 409.343C583.219 410.101 586.832 414.791 586.256 419.951C585.68 425.111 581.122 428.888 575.945 428.495C570.767 428.102 566.831 423.68 567.041 418.492Z"/><path fill="#FEFEFF" d="M604.03 449.752C606.254 448.798 608.833 449.793 609.84 451.994C610.847 454.194 609.914 456.796 607.739 457.856C606.284 458.564 604.56 458.429 603.233 457.502C601.907 456.575 601.187 455.002 601.353 453.393C601.518 451.783 602.543 450.39 604.03 449.752Z"/><path d="M434.32 375.812C465.952 373.586 493.39 397.443 495.582 429.077C497.773 460.711 473.885 488.123 442.249 490.279C410.662 492.432 383.302 468.59 381.115 437.005C378.927 405.421 402.738 378.035 434.32 375.812Z"/><path fill="#FEFEFF" d="M433.244 378.742C463.087 375.938 489.602 397.736 492.623 427.558C495.645 457.38 474.04 484.053 444.241 487.291C414.134 490.563 387.124 468.685 384.071 438.555C381.019 408.425 403.093 381.575 433.244 378.742Z"/><path fill="#7C1F7D" d="M441.23 391.722C464.651 388.992 485.86 405.746 488.625 429.164C491.391 452.581 474.67 473.815 451.256 476.617C427.792 479.425 406.502 462.659 403.73 439.19C400.958 415.722 417.757 394.458 441.23 391.722Z"/><path d="M473.073 419.578L473.512 418.089L474.349 418.273C481.021 426.488 480.05 441.411 474.804 450.197C470.33 457.547 463.084 462.785 454.703 464.728C446.184 466.824 437.179 465.366 429.756 460.69C422.515 456.19 417.389 448.964 415.535 440.643C413.769 432.294 415.504 423.587 420.337 416.553C424.899 409.771 432.001 405.113 440.039 403.631C449.086 401.964 456.504 403.941 463.991 409.057C466.596 409.232 469.024 410.443 470.73 412.42C472.437 414.397 473.281 416.975 473.073 419.578Z"/><path fill="#FEFEFF" d="M463.991 409.057C466.596 409.232 469.024 410.443 470.73 412.42C472.437 414.397 473.281 416.975 473.073 419.578C472.645 424.939 467.964 428.944 462.602 428.539C457.24 428.134 453.215 423.471 453.597 418.107C453.979 412.743 458.625 408.698 463.991 409.057Z"/><path fill="#FEFEFF" d="M432.605 449.744C434.958 448.915 437.539 450.133 438.394 452.477C439.249 454.82 438.059 457.415 435.725 458.295C434.193 458.874 432.468 458.584 431.208 457.536C429.949 456.489 429.349 454.846 429.638 453.234C429.927 451.621 431.06 450.289 432.605 449.744Z"/><path fill="#F1C8CC" d="M646.255 487.118C656.071 486.429 671.544 488.541 675.694 499.054C676.819 501.882 676.662 505.059 675.262 507.762C671.868 514.451 663.795 517 657.203 519.011C649.677 520.217 641.866 519.197 635.066 515.637C628.14 512.01 623.209 503.81 628.036 496.503C632.097 490.355 639.465 488.418 646.255 487.118Z"/><path fill="#F1C8CC" d="M385.436 487.199C397.827 486.119 410.376 489.92 413.233 503.514C410.372 514.963 400.977 518.002 390.447 519.27C382.98 519.188 376.53 518.438 370.058 514.236C363.813 510.18 360.019 502.247 365.181 495.712C369.93 489.699 378.176 488 385.436 487.199Z"/><path d="M483.129 493.287C490.677 493.798 490.069 500.085 495.568 503.947C510.523 514.449 528.913 515.405 544.265 505.151C549.693 501.526 553.802 494.166 556.904 493.793C559.976 495.288 559.68 497.298 558.707 500.124C547.196 519.33 520.104 523.113 500.706 514.968C494.288 512.273 485.661 506.948 482.947 500.156C481.771 497.215 481.876 496.123 483.129 493.287Z"/><path fill="#3FAFBD" d="M375.1 582.455C376.891 582.419 377.049 582.42 378.801 582.749C379.31 583.155 380.349 583.771 380.443 584.392C381.36 590.486 382.442 606.863 388.885 609.819C395.816 609.421 395.524 596.176 402.094 596.595C405.758 598.954 404.474 601.906 403.566 605.396C397.503 625.539 378.558 618.936 374.105 602.005C372.277 595.056 371.124 588.989 375.1 582.455Z"/><path fill="#3FAFBD" d="M677.278 550.361C678.345 550.421 678.822 550.55 679.875 550.752C689.191 557.584 676.659 596.911 655.922 582.565C654.032 580.139 651.124 574.323 652.672 571.324C656.754 568.52 661.703 574.545 664.308 577.225C678.298 570.333 669.867 557.291 677.278 550.361Z"/><path fill="#3FAFBD" d="M566.006 322.268C582.766 323.664 572.955 364.95 552.27 351.619C548.932 348.318 545.696 343.225 549.209 338.911C553.324 337.826 557.463 345.771 560.187 344.816C570.292 341.272 559.215 329.115 566.006 322.268Z"/><path fill="#6AC8D2" d="M710.994 481.327C732.938 495.042 757.941 519.743 769.338 542.856C773.262 550.812 775.071 556.356 777.29 564.723C767.931 567.713 768.755 570.583 767.488 579.608C765.839 579.824 763.818 579.925 762.131 580.058C755.966 581.773 754.506 585.397 752.51 590.901C744.532 587.647 742.152 588.066 735.265 592.966C729.227 588.432 723.159 580.3 718.517 574.237C718.378 542.271 714.183 513.039 710.994 481.327Z"/><path fill="#6AC8D2" d="M328.672 482.426L329.314 482.673C329.77 485.054 325.351 518.206 324.906 523.417C323.565 540.22 322.581 557.05 321.953 573.895C316.498 582.279 312.191 586.878 305.33 593.826C298.503 588.386 295.682 588.177 287.863 591.18C285.642 585.19 285.502 583.758 279.889 580.644L272.886 580.163C273.695 570.235 271.817 571.356 264.912 565.015C262.123 562.453 268.179 548.948 269.525 546.177C282.191 520.103 304.983 498.422 328.672 482.426Z"/><path fill="#6AC8D2" d="M647.292 667.467L648.092 668.056C649.821 674.042 644 703.76 641.671 710.766C639.767 716.497 637.257 723.063 634.67 728.764C626.17 723.08 621.814 723.498 614.485 730.569C605.995 722.853 599.733 722.773 591.72 730.786C586.825 724.933 584.858 724.387 577.542 724.466C574.442 725.571 573.611 726.247 570.987 728.069C566.986 716.263 565.766 702.101 564.559 689.711C596.952 686.546 618.114 681.157 647.292 667.467Z"/><path fill="#6AC8D2" d="M392.013 666.811C421.277 681.223 443.338 686.008 475.586 689.625C475.203 700.577 473.166 717.588 469.664 727.574C467.43 726.252 465.774 725.54 463.428 724.507C463.043 724.49 462.658 724.476 462.273 724.465C455.087 724.272 453.985 725.395 448.91 730.175C440.221 722.574 434.603 723.182 426.328 730.591C422.999 726.441 421.426 725.726 416.628 724.207C411.707 725.111 410.134 725.838 406.02 728.255C396.743 712.089 393.056 685.534 392.013 666.811Z"/><path fill="#FAA432" d="M367.594 287.317C368.326 285.893 369.098 284.489 369.907 283.108C371.847 279.745 377.669 270.05 381.884 269.463C386.912 268.764 387.39 278.815 387.768 282.144C388.473 284.72 389.281 287.999 390.101 290.477C392.345 296.887 394.597 301.677 398.892 307.073L404.095 312.389L411.225 318.212C392.96 329.914 378.001 340.205 364.241 357.657C358.912 348.094 358.081 341.32 357.25 330.556C356.995 327.256 357.071 326.063 357.337 322.811C358.547 311.361 360.255 305.664 363.873 294.867C365.02 292.179 366.237 289.9 367.594 287.317Z"/><path fill="#FAA432" d="M398.892 307.073L404.095 312.389L411.225 318.212C392.96 329.914 378.001 340.205 364.241 357.657C358.912 348.094 358.081 341.32 357.25 330.556C356.995 327.256 357.071 326.063 357.337 322.811C371.157 321.951 388.669 316.51 398.892 307.073Z"/><path fill="#E16402" d="M398.892 307.073L404.095 312.389C388.352 323.75 377.423 329.999 357.25 330.556C356.995 327.256 357.071 326.063 357.337 322.811C371.157 321.951 388.669 316.51 398.892 307.073Z"/><path fill="#FAA432" d="M367.594 287.317C368.326 285.893 369.098 284.489 369.907 283.108C371.847 279.745 377.669 270.05 381.884 269.463C386.912 268.764 387.39 278.815 387.768 282.144C385.786 286.566 371.886 287.599 367.594 287.317Z"/><path fill="#E16402" d="M387.768 282.144C388.473 284.72 389.281 287.999 390.101 290.477C379.495 294.593 375.103 295.878 363.873 294.867C365.02 292.179 366.237 289.9 367.594 287.317C371.886 287.599 385.786 286.566 387.768 282.144Z"/><path fill="#FAA432" d="M651.175 283.569C651.588 281.015 653.02 266.423 657.272 268.723C663.307 271.988 668.786 281.494 671.931 287.313C673.472 290.147 674.581 292.325 675.894 295.267C679.92 306.276 681.134 311.588 682.62 323.033C682.636 325.32 682.75 328.313 682.615 330.536C682.095 341.055 680.419 347.213 675.865 356.636C658.78 337.362 649.714 331.239 628.566 317.708L635.405 312.36L641.111 306.464C645.112 301.558 646.981 297.07 649.263 291.245L651.175 283.569Z"/><path fill="#FAA432" d="M635.405 312.36L641.111 306.464C655.508 317.092 664.972 321.101 682.62 323.033C682.636 325.32 682.75 328.313 682.615 330.536C682.095 341.055 680.419 347.213 675.865 356.636C658.78 337.362 649.714 331.239 628.566 317.708L635.405 312.36Z"/><path fill="#E16402" d="M635.405 312.36L641.111 306.464C655.508 317.092 664.972 321.101 682.62 323.033C682.636 325.32 682.75 328.313 682.615 330.536C659.745 329.929 653.525 322.477 635.405 312.36Z"/><path fill="#FAA432" d="M651.175 283.569C651.588 281.015 653.02 266.423 657.272 268.723C663.307 271.988 668.786 281.494 671.931 287.313C665.056 287.997 657.488 286.227 651.175 283.569Z"/><path fill="#E16402" d="M651.175 283.569C657.488 286.227 665.056 287.997 671.931 287.313C673.472 290.147 674.581 292.325 675.894 295.267C662.722 295.22 661.653 294.922 649.263 291.245L651.175 283.569Z"/><path fill="#6AC8D2" d="M600.717 727.74C606.305 726.502 611.842 730.021 613.092 735.606C614.342 741.192 610.834 746.736 605.251 747.997C599.652 749.262 594.089 745.742 592.835 740.14C591.581 734.538 595.113 728.983 600.717 727.74Z"/><path fill="#6AC8D2" d="M435.83 727.75C441.406 726.657 446.811 730.298 447.893 735.876C448.975 741.454 445.324 746.852 439.744 747.924C434.179 748.993 428.798 745.354 427.719 739.79C426.639 734.227 430.268 728.84 435.83 727.75Z"/><path fill="#6AC8D2" d="M457.137 727.235C460.33 726.199 463.834 726.985 466.278 729.285C468.723 731.586 469.72 735.035 468.881 738.285C468.041 741.535 465.497 744.07 462.244 744.898C457.433 746.122 452.518 743.308 451.139 738.539C449.76 733.77 452.415 728.767 457.137 727.235Z"/><path fill="#6AC8D2" d="M577.685 727.062C589.856 726.393 595.174 738.857 583.287 744.828C570.992 745.183 565.801 733.029 577.685 727.062Z"/><path fill="#6AC8D2" d="M414.36 727.233C419.34 726.598 423.896 730.11 424.55 735.088C425.204 740.065 421.71 744.635 416.735 745.309C411.733 745.986 407.132 742.468 406.474 737.463C405.817 732.458 409.352 727.871 414.36 727.233Z"/><path fill="#6AC8D2" d="M622.922 727.772C627.749 726.635 632.591 729.598 633.776 734.413C634.961 739.229 632.045 744.1 627.242 745.332C622.371 746.581 617.416 743.616 616.215 738.733C615.014 733.85 618.027 728.925 622.922 727.772Z"/></svg>