<?xml version="1.0" encoding="utf-8" ?><svg xmlns="http://www.w3.org/2000/svg" xmlns:xlink="http://www.w3.org/1999/xlink" width="1024" height="1024" viewBox="0 0 1024 1024"><path d="M594.972 247.545C617.64 248.95 630.681 282.81 636.281 301.117C648.849 308.009 678.559 321.401 684.685 334.853C679.091 334.54 671.919 332.694 666.399 331.311C688.039 353.778 699.854 379.006 710.939 407.768C712.373 411.488 719.315 426.87 716.834 429.747L715.195 429.618C713.381 427.827 711.549 426.277 709.748 424.541C710.505 426.185 711.526 428.608 712.34 430.143C713.937 435.83 717.386 444.112 719.031 449.442C721.819 458.472 737.601 509.602 733.023 515.044C730.386 514.657 728.317 509.888 725.809 507.822C725.597 509.68 728.082 528.675 728.355 532.483C730.07 555.092 728.952 577.826 725.026 600.157C724.482 603.101 723.501 608.755 722.123 611.119L721.33 611.254C718.647 608.403 716.211 598.883 715.154 594.811C714.299 597.225 713.69 599.623 713.275 602.126C708.926 628.347 700.389 654.412 680.157 672.817C675.673 676.896 671.84 680.41 666.134 682.798C667.678 676.267 669.213 671.962 672.219 666.042C650.048 688 635.999 694.073 607.415 704.259C605.956 711.944 603.357 722.557 601.755 730.294C600.174 737.935 595.852 771.688 590.103 774.85C571.603 784.386 540.328 784.592 519.597 781.936C496.997 779.041 503.391 763.626 518.298 754.282C514.399 745.821 512.001 737.637 510.011 728.574C509.229 725.014 508.738 720.393 507.6 717.155C505.932 716.476 492.42 716.561 489.793 716.583C488.346 725.426 482.421 763.461 476.541 767.875C467.137 774.935 435.058 773.748 422.702 772.771C417.428 772.234 403.97 771.586 400.847 766.57C395.031 757.226 405.891 749.473 411.655 745.487C405.009 728.841 402.872 719.034 399.803 701.393C375.604 694.302 362.637 687.722 342.728 672.679C343.873 677.525 345.545 682.894 346.932 687.722C331.606 679.169 320.797 663.233 312.516 648.187C312.068 651.049 312.501 653.96 309.625 655.174C300.998 653.028 291.029 610.224 289.485 600.819C288.636 603.519 286.949 610.979 284.052 611.74C281.893 610.122 281.724 603.607 281.401 600.898C279.063 581.301 280.617 561.655 282.978 542.141C279.575 547.039 277.797 550.001 273.272 553.795C273.649 547.758 274.579 541.639 275.946 535.752C281.307 512.675 287.442 490.061 292.159 466.821C286.042 455.14 282.104 444.171 281.506 430.793C280.68 412.333 284.543 390.195 297.262 375.986C302.519 370.112 309.361 366.19 317.313 365.756C320.049 360.032 322.315 355.571 325.869 350.33C323.13 351.762 315.517 356.315 312.624 355.203L312.305 354.1C313.471 350.009 319.187 342.792 321.892 339.038C315.857 321.898 314.977 301.5 321.661 284.38C325.783 273.824 338.495 247.422 352.332 249.778C358.336 250.801 357.964 272.871 359.525 277.719C361.321 284.145 363.038 287.235 366.421 292.684C388.301 284.09 409.135 279.455 432.475 276.216C429.075 275.061 413.249 271.445 412.539 269.065C412.751 268.711 412.828 268.518 413.206 268.251C421.626 262.306 508.139 268.018 523.983 269.132C519.82 265.848 512.429 261.828 509.217 258.131L509.447 257.274C519.89 255.004 574.238 273.203 586.829 278.355C588.486 270.152 587.768 261.441 590.287 253.472C591.215 250.536 592.608 249.393 594.972 247.545Z"/><path fill="#6EC9D1" d="M516.203 260.027C542.055 265.933 561.231 271.742 585.982 280.369C583.835 287.266 582.713 290.41 578.199 296.194C569.692 307.094 554.444 312.46 555.111 328.204C555.294 332.5 556.433 336.701 558.444 340.502C568.588 359.922 599.808 370.283 619.336 360.409C637.276 351.339 637.738 321.4 636.925 304.447C651.529 310.961 667.156 319.792 678.42 331.249C671.476 329.617 667.42 328.371 660.227 328.204C664.217 333.931 670.135 338.175 674.388 343.926C691.786 367.454 705.5 395.847 713.859 423.86C711.759 422.08 707.141 417.724 704.525 417.414C702.617 420.128 708.95 429.198 710.137 432.468C711.383 435.901 713.04 439.443 714.113 442.988C722.434 465.453 727.434 485.716 731.362 509.196C728.018 504.908 726.122 502.332 721.923 498.855C721.857 506.315 723.946 514.852 724.931 522.386C728.622 550.606 725.951 577.409 721.629 605.399C720.571 601.937 717.445 590.015 714.484 588.688C711.718 591.155 708.253 615.941 706.682 621.552C704.601 629.107 701.816 636.451 698.365 643.486C691.314 657.581 683.562 666.24 671.758 676.295C673.053 672.854 677.61 662.217 676.023 659.206C673.438 659.478 662.223 672.101 658.771 674.917C641.919 688.667 625.967 695.091 605.78 701.845C599.304 723.969 597.597 747.42 590.872 769.285C590.285 771.164 587.744 773.649 585.959 774.256C565.892 781.081 535.813 783.098 515.114 778.207C498.222 774.216 512.891 760.566 521.036 756.039C516.229 742.11 511.847 729.278 510.339 714.44C461.703 712.823 402.334 707.339 359.708 681.488C356.275 679.427 352.97 677.162 349.81 674.704C347.303 672.713 343.463 668.506 340.512 668.503C339.071 670.992 340.909 677.447 341.681 680.316L341.889 681.083C331.526 672.405 321.701 661.177 315.913 648.875C314.845 646.603 313.142 641.522 310.999 640.598C307.885 641.53 308.386 647.09 308.33 649.889C300.324 634.625 294.7 621.368 292.931 603.956C292.628 600.974 291.957 593.987 290.437 591.681C287.48 592.831 285.644 601.032 284.847 603.988C279.665 586.192 283.899 559 286.101 540.699C286.284 539.178 286.45 536.454 285.056 535.649C282.004 537.121 278.724 542.866 276.566 545.823C278.878 534.576 281.442 523.383 284.258 512.252C287.079 502.723 289.246 492.734 291.315 483.021C292.222 478.711 293.318 473.997 293.984 469.677C307.477 483.303 320.749 486.89 335.108 471.795C359.886 445.746 361.863 375.494 320.176 364.672C322.566 361.003 329.483 351.336 329.935 347.697C328.03 344.368 319.2 350.003 316.506 351.439C327.62 333.751 341.684 322.056 359.878 311.621C365.691 308.287 374.584 304.77 379.399 300.577C373.366 297.979 368.026 298.006 361.474 297.843C383.37 287.981 406.305 282.969 429.989 279.379C432.826 278.95 435.685 278.019 438.339 276.952C433.28 272.43 427.193 271.117 420.753 269.268C446.902 267.309 473.253 269.43 499.402 270.311C508.499 270.617 522.735 272.185 531.117 271.409C526.145 266.379 522.052 263.876 516.203 260.027Z"/><path fill="#E5CAC8" d="M291.315 483.021C296.391 484.714 300.603 486.577 303.225 491.674C304.988 495.06 305.236 499.034 303.907 502.613C301.003 510.444 292.133 514.155 284.258 512.252C287.079 502.723 289.246 492.734 291.315 483.021Z"/><path d="M449.759 364.224C483.142 361.561 512.354 386.487 514.978 419.873C517.602 453.26 492.642 482.443 459.252 485.027C425.918 487.608 396.794 462.698 394.174 429.367C391.555 396.035 416.431 366.882 449.759 364.224Z"/><path fill="#FEFEFE" d="M419.705 378.285C431.738 368.676 444.788 364.035 460.314 365.7C475.146 367.257 488.709 374.775 497.891 386.528C518.026 412.053 514.543 451.691 488.572 471.892C476.653 481.088 461.558 485.147 446.634 483.17C435.136 481.582 424.437 476.391 416.074 468.342C405.877 459.634 402.304 448.591 399.27 436.099C405.058 445.442 410.877 454.953 422.604 457.101C444.919 461.058 459.084 440.357 457.784 420.025C456.421 398.706 437.033 381.696 415.903 392.323C409.792 395.397 405.742 399.912 401.354 405.052C405.734 395.267 410.957 384.912 419.705 378.285Z"/><path fill="#772576" d="M419.705 378.285L420.519 378.641C423.839 377.945 428.049 376.902 431.396 376.741C451.717 375.761 467.126 393.467 471.002 411.905C473.775 425.564 471.08 439.765 463.495 451.459C457.227 461.008 448.045 467.782 436.722 470.071C428.307 471.772 423.614 469.342 416.074 468.342C405.877 459.634 402.304 448.591 399.27 436.099C405.058 445.442 410.877 454.953 422.604 457.101C444.919 461.058 459.084 440.357 457.784 420.025C456.421 398.706 437.033 381.696 415.903 392.323C409.792 395.397 405.742 399.912 401.354 405.052C405.734 395.267 410.957 384.912 419.705 378.285Z"/><path fill="#FEFEFE" d="M414.739 396.005C428.578 395.973 429.093 409.594 417.868 416.551C404.256 416.085 404.189 403.001 414.739 396.005Z"/><path d="M647.854 518.159C651.516 519.991 651.646 528.806 652.075 532.595C655.165 559.859 656.874 583.163 647.22 609.418C651.248 613.468 654.347 619.013 651.275 624.322C645.959 633.51 637.145 629.619 630.732 625.823C628.204 633.37 623.084 639.628 613.71 635.234C610.206 633.591 608.533 629.303 607.624 625.667C602.394 628.914 596.872 631.556 591.143 627.316C588.929 625.676 587.479 623.206 587.127 620.473C586.484 615.759 588.224 612.856 590.802 609.317C581.093 592.234 578.017 579.752 573.565 561.114C572.508 556.339 568.154 537.443 570.002 533.83C572.525 534.715 572.8 541.084 573.348 544.015C577.346 565.404 581.518 588.886 593.327 607.487C604.05 607.427 606.315 607.903 609.701 618.361C618.871 613.386 621.093 611.98 629.144 619.247C632.204 610.033 634.988 607.061 644.883 607.896C653.126 583.308 652.545 564.897 650.039 539.493C649.386 532.868 647.226 524.531 647.854 518.159Z"/><path fill="#6EC9D1" d="M596.567 610.221C601.179 609.327 605.64 612.35 606.52 616.966C607.399 621.581 604.361 626.033 599.743 626.897C595.146 627.757 590.719 624.736 589.844 620.142C588.969 615.548 591.975 611.112 596.567 610.221Z"/><path fill="#6EC9D1" d="M639.253 610.788C643.728 609.898 648.102 612.719 649.137 617.164C650.171 621.608 647.493 626.071 643.084 627.249C640.103 628.045 636.924 627.154 634.792 624.924C632.659 622.694 631.911 619.479 632.839 616.536C633.768 613.593 636.226 611.39 639.253 610.788Z"/><path fill="#6EC9D1" d="M616.988 617.227C619.982 616.408 623.183 617.296 625.328 619.539C627.473 621.782 628.216 625.02 627.264 627.974C626.312 630.928 623.818 633.122 620.767 633.691C616.311 634.521 611.994 631.689 610.98 627.272C609.966 622.854 612.617 618.423 616.988 617.227Z"/><path fill="#E5CAC8" d="M502.184 486.168C509.772 485.127 518.161 486.498 524.687 490.53C536.596 497.888 536.372 510.797 523.589 516.985C518.431 519.481 515.215 520.052 509.499 520.956C501.159 521.309 492.285 520.24 485.149 515.646C473.559 508.184 475.525 495.89 487.523 490.241C492.752 487.779 496.439 487.028 502.184 486.168Z"/><path fill="#41A6B1" d="M664.22 381.326C673.929 383.173 674.136 404.299 673.206 411.821C671.01 429.596 656.427 442.53 643.386 423.282C641.421 419.32 638.756 413.927 643.47 410.708C650.249 410.62 653.111 426.902 659.367 422.476C665.123 418.404 665.138 406.88 663.757 400.535C662.705 395.699 660.681 389.556 661.264 384.543C661.465 382.972 663.056 382.108 664.22 381.326Z"/><path fill="#41A6B1" d="M697.328 558.939C699.902 558.923 702.895 559.003 703.527 562.232C705.298 571.28 704.021 583.237 700.153 591.624C697.183 598.062 691.751 600.88 685.465 602.981C678.859 600.934 676.607 599.246 673.024 593.55C671.12 589.691 669.148 583.695 671.505 579.69C680.691 572.291 679.132 594.742 686.139 592.802C699.25 589.172 691.543 566.302 697.328 558.939Z"/><path d="M343.701 491.747C349.773 492.865 351.95 506.803 364.825 508.434C373.335 509.68 382.463 506.227 388.577 500.296C391.096 497.853 393.436 493.194 397.248 493.912C399.931 496.347 399.142 498.75 397.851 501.603C397.557 501.979 397.264 502.354 396.97 502.73C390.861 510.252 381.952 514.961 372.296 515.774C361.169 516.799 342.923 511.047 341.484 497.145C341.223 494.626 342.012 493.587 343.701 491.747Z"/><path fill="#41A6B1" d="M346.192 610.206C348.166 610.303 349.966 610.646 350.853 612.601C355.986 623.915 343.217 646.061 331.547 630.638C329.574 628.031 328.961 626.578 327.72 623.631C326.287 619.842 324.668 614.541 327.94 611.376C329.663 610.901 329.547 610.958 331.291 611.432C336.216 615.33 334.462 625.437 339.874 626.854C343.608 625.307 342.791 615.35 346.192 610.206Z"/><path fill="#F4A943" d="M591.449 260.707C593.139 245.749 600.449 248.816 609.265 256.81C611.161 258.796 613.528 261.157 615.292 263.192C621.74 271.882 625.632 278.059 629.732 288.293C630.702 291.065 631.808 294.001 632.564 296.821C634.836 310.175 635.556 317.326 633.234 330.973C632.361 334.473 631.521 338.053 630.434 341.486C627.783 348.826 624.089 355.721 616.453 358.88C604.178 363.856 588.081 361.328 576.818 354.796C562.378 346.421 552.063 331.88 561.814 315.495C564.177 312.988 565.458 311.909 568.142 309.738C575.018 304.344 578.674 300.428 583.834 293.479C585.15 290.883 586.203 288.434 587.356 285.767C589.261 279.644 589.927 275.841 590.607 269.452C590.559 267.913 591.251 262.523 591.449 260.707Z"/><path fill="#F4A943" d="M568.142 309.738C581.232 333.384 608.709 342.168 633.234 330.973C632.361 334.473 631.521 338.053 630.434 341.486C627.783 348.826 624.089 355.721 616.453 358.88C604.178 363.856 588.081 361.328 576.818 354.796C562.378 346.421 552.063 331.88 561.814 315.495C564.177 312.988 565.458 311.909 568.142 309.738Z"/><path fill="#D9690D" d="M568.142 309.738C581.232 333.384 608.709 342.168 633.234 330.973C632.361 334.473 631.521 338.053 630.434 341.486C626.485 341.465 623.231 342.722 619.421 343.319C595.952 346.999 573.666 335.247 561.814 315.495C564.177 312.988 565.458 311.909 568.142 309.738Z"/><path fill="#F4A943" d="M591.449 260.707C593.139 245.749 600.449 248.816 609.265 256.81C611.161 258.796 613.528 261.157 615.292 263.192C621.74 271.882 625.632 278.059 629.732 288.293C626.321 291.34 620.652 293.19 616.165 293.74C605.891 294.923 595.56 292.064 587.356 285.767C589.261 279.644 589.927 275.841 590.607 269.452C590.559 267.913 591.251 262.523 591.449 260.707Z"/><path fill="#D9690D" d="M591.449 260.707C593.139 245.749 600.449 248.816 609.265 256.81C611.161 258.796 613.528 261.157 615.292 263.192C604.455 269.485 603.101 269.85 590.607 269.452C590.559 267.913 591.251 262.523 591.449 260.707Z"/><path fill="#F4A943" d="M591.449 260.707C593.139 245.749 600.449 248.816 609.265 256.81C604.351 260.518 597.479 262.929 591.449 260.707Z"/><path fill="#D9690D" d="M587.356 285.767C595.56 292.064 605.891 294.923 616.165 293.74C620.652 293.19 626.321 291.34 629.732 288.293C630.702 291.065 631.808 294.001 632.564 296.821C628.797 299.017 624.737 300.667 620.506 301.72C606.431 305.089 595.575 300.741 583.834 293.479C585.15 290.883 586.203 288.434 587.356 285.767Z"/><path fill="#41A6B1" d="M402.77 702.673C434.561 711.086 453.832 713.999 486.746 716.836C485.328 729.438 481.654 745.091 478.86 757.686C477.778 762.561 475.349 765.871 470.958 768.227C454.185 771.757 431.17 770.78 413.902 769.205C410.255 768.845 404.649 767.312 402.436 764.161C397.655 757.355 410.274 749.634 415.002 746.791C408.888 730.36 405.669 719.897 402.77 702.673Z"/><path fill="#772576" d="M336.965 465.172C325.988 481.454 307.538 483.87 295.426 466.832C277.677 441.864 279.825 391.602 305.247 372.123C318.907 361.656 332.242 369.752 340.404 382.415C346.145 391.736 348.166 400.735 349.674 411.395C342.07 397.633 336.085 380.715 316.054 391.72C315.544 391.997 315.043 392.292 314.552 392.603C326.633 403.355 313.11 421.562 305.156 408.926C301.587 413.336 302.093 424.944 302.593 430.521C304.556 452.401 325.76 469.426 342.167 446.791C344.769 443.201 346.545 439.258 348.56 435.195C346.286 447.154 344.375 454.946 336.965 465.172Z"/><path fill="#FEFEFE" d="M336.965 465.172C325.988 481.454 307.538 483.87 295.426 466.832C277.677 441.864 279.825 391.602 305.247 372.123C318.907 361.656 332.242 369.752 340.404 382.415C338.513 382.187 335.036 380.599 333.48 379.6C327.047 375.471 317.654 377.541 311.789 382.051C291.399 397.729 287.791 435.88 302.435 456.353C306.781 462.428 313.34 467.202 320.579 468.386C326.806 469.611 333.236 465.12 336.965 465.172Z"/><path fill="#FEFEFE" d="M305.156 408.926C304.298 400.44 306.169 395.331 314.552 392.603C326.633 403.355 313.11 421.562 305.156 408.926Z"/><path fill="#F4A943" d="M336.601 262.395C342.671 254.221 352.583 244.437 355.263 261.155C355.509 264.526 355.798 267.893 356.133 271.256C356.796 275.736 357.472 280.172 359.043 284.445C360.402 287.309 361.746 290.395 363.428 293.057C362.577 295.117 357.807 296.546 355.424 299.307C355.281 298.611 354.821 297.93 354.458 297.249C342.951 302.409 333.151 304.164 321.129 299.659L320.279 299.333L322.26 290.669C325.191 281.927 327.595 276.228 332.43 268.489C333.999 265.848 334.739 264.786 336.601 262.395Z"/><path fill="#D9690D" d="M359.043 284.445C360.402 287.309 361.746 290.395 363.428 293.057C362.577 295.117 357.807 296.546 355.424 299.307C355.281 298.611 354.821 297.93 354.458 297.249C342.951 302.409 333.151 304.164 321.129 299.659L320.279 299.333L322.26 290.669C333.926 296.743 349.428 292.623 359.043 284.445Z"/><path fill="#E78634" d="M354.458 297.249C357.464 294.166 359.049 292.791 363.428 293.057C362.577 295.117 357.807 296.546 355.424 299.307C355.281 298.611 354.821 297.93 354.458 297.249Z"/><path fill="#D9690D" d="M336.601 262.395C342.671 254.221 352.583 244.437 355.263 261.155C355.509 264.526 355.798 267.893 356.133 271.256C345.631 273.276 341.811 274.039 332.43 268.489C333.999 265.848 334.739 264.786 336.601 262.395Z"/><path fill="#F4A943" d="M336.601 262.395C342.671 254.221 352.583 244.437 355.263 261.155L354.966 263.187C351.721 265.466 339.723 264.469 336.601 262.395Z"/><path fill="#F4A943" d="M354.458 297.249C354.821 297.93 355.281 298.611 355.424 299.307C360.039 301.094 368.152 301.07 373.324 301.254C356.229 310.634 343.314 317.087 329.005 331.17C327.479 333.184 325.287 335.44 323.552 337.338C322.772 335.197 322.257 333.037 321.677 330.833C319.266 318.834 318.773 311.528 320.279 299.333L321.129 299.659C333.151 304.164 342.951 302.409 354.458 297.249Z"/><path fill="#D9690D" d="M321.677 330.833C324.128 331.063 326.571 331.417 329.005 331.17C327.479 333.184 325.287 335.44 323.552 337.338C322.772 335.197 322.257 333.037 321.677 330.833Z"/><path fill="#FEFEFE" fill-opacity="0.0078431377" d="M709.748 424.541C711.549 426.277 713.381 427.827 715.195 429.618L714.34 431.095C712.059 430.695 713.743 429.542 712.34 430.143C711.526 428.608 710.505 426.185 709.748 424.541Z"/></svg>