<?xml version="1.0" encoding="utf-8" ?><svg xmlns="http://www.w3.org/2000/svg" xmlns:xlink="http://www.w3.org/1999/xlink" width="1024" height="1024" viewBox="0 0 1024 1024"><path d="M507.721 253.956C522.482 253.807 534.798 275.255 541.555 286.248C543.213 286.593 544.869 286.947 546.523 287.31C585.085 295.767 619.057 316.139 645.161 345.669C648.604 349.563 661.805 364.052 660.819 368.305C658.153 368.445 648.516 363.745 645.572 362.42C669.956 397.049 678.164 443.079 691.006 482.749C693.171 489.438 696.385 496.725 697.444 503.627L696.71 504.075C692.929 503.922 686.912 498.6 684.086 496.158C695.421 536.397 699.972 599.243 680.942 637.73C680.099 631.242 679.519 624.017 678.854 617.457C670.07 646.399 654.209 674.438 627.264 689.937C625.277 691.079 622.411 693.146 620.466 691.631C621.26 689.31 626.389 680.622 627.941 677.683C622.927 680.474 617.102 684.641 611.864 687.709C596.19 696.892 582.759 701.474 565.363 705.947C562.001 716.264 559.835 727.289 557.708 737.922C555.734 747.79 554.033 764.291 549.069 772.642C546.362 777.195 542.086 779.644 537.062 780.933C524.911 784.051 476.295 785.377 466.211 779.065C462.734 776.889 461.652 774.332 460.816 770.446C452.428 770.501 446.077 770.397 437.618 769.556C417.564 769.212 423.289 752.651 436.688 744.701C433.445 736.184 430.145 721.491 428.77 712.574C396.743 709.55 373.081 702.144 344.287 688.003C346.424 690.993 350.676 695.316 351.864 698.51L351.133 699.025C348.64 698.941 346.298 697.748 344.085 696.627C320.936 684.899 300.79 662.504 289.931 639.104C286.084 630.814 282.901 620.414 280.02 611.577C279.864 615.044 280.253 620.405 277.271 622.619L276.326 622.218C274.302 619.2 273.192 613.876 272.484 610.246C262.276 557.922 275.05 506.226 284.748 454.958C289.086 432.024 290.839 410.699 298.689 388.433C305.365 369.496 312.075 359.937 322.673 343.635C316.688 345.339 311.606 347.353 305.359 348.784C316.352 326.628 347.8 310.619 369.906 301.629C366.475 301.074 348.313 300.59 347.274 299.813L347.52 299.04C349.07 297.35 351.729 295.902 353.76 294.821C385.527 277.907 422.593 282.153 457.36 279.664C450.171 275.825 443.909 274.529 436.344 269.582C453.749 263.77 481.889 270.686 499.416 275.359C499.891 266.501 498.675 258.327 507.721 253.956Z"/><path fill="#6CC9D2" d="M451.373 270.197C466.819 269.505 484.328 274.096 499.144 277.947C498.359 293.665 493.36 304.615 480.922 314.645C460.116 330.326 472.445 355.815 492.216 363.945C519.744 375.265 546.69 370.207 550.429 336.602C552.754 315.702 550.613 308.187 543.465 289.33C588.95 299.686 629.437 324.26 655.869 363.406C652.813 361.904 643.625 356.827 640.929 359.733C642.872 364.245 646.56 369.199 649.115 373.505C671.761 411.674 679.866 458.594 693.804 500.359C688.862 495.651 687.105 493.851 681.061 490.917C681.144 496.948 685.754 515.072 686.991 522.499C692.584 556.089 694.261 593.297 683.327 625.997C682.842 622.476 681.813 612.392 679.278 610.107C678.962 610.185 678.647 610.263 678.331 610.342C676.656 613.83 674.379 623.277 673.318 626.363C663.849 653.895 649.95 671.47 626.318 687.773C628.286 684.493 633.522 676.03 631.348 672.596C628.807 673.023 622.685 677.429 620.304 679.162C602.866 691.855 583.927 697.877 563.373 703.753C559.011 717.562 556.627 730.082 553.739 744.211C552.257 751.46 549.45 765.746 546.439 772.219C538.128 783.602 486.863 781.64 473.113 778.632C453.947 774.44 468.296 761.423 477.48 756.088C471.399 738.378 468.791 730.759 466.379 711.978C434.694 712.288 395.865 706.876 366.247 695.19C357.334 691.673 347.96 685.474 338.179 681.598C340.04 687.614 341.227 688.905 345.177 693.875C315.234 679.74 292.229 647.539 284.434 615.711C283.749 612.913 282.246 603.364 280.336 601.779L279.597 602.171C277.632 605.676 277.127 610.959 276.575 614.949C267.806 586.021 272.157 544.266 275.95 514.65C277.551 515.061 279.16 515.444 280.775 515.796C291.528 518.071 309.994 513.517 314.528 500.425C314.903 499.342 313.847 498.352 313.137 497.632C307.092 496.422 301.489 512.648 277.352 507.051C278.492 501.642 279.513 495.874 280.771 490.636C291.838 444.572 290.28 393.607 319.158 353.638C321.581 350.283 325.028 345.228 326.775 341.583L326.428 340.826C322.708 339.499 314.964 342.818 311.312 344.19C323.586 329.018 339.176 318.324 356.747 309.956C363.155 306.904 370.668 304.755 376.368 300.662C369.961 297.54 362.206 297.742 355.096 297.415C382.721 283.151 408.821 283.769 438.672 283.862C444.581 283.88 457.142 283.469 462.302 281.659L462.695 280.802C460.441 276.374 449.689 273.314 446.695 270.88C447.758 270.329 450.031 270.306 451.373 270.197Z"/><path d="M337.518 366.61C398.857 363.188 405.226 473.624 344.276 487.96C335.732 488.441 327.347 487.831 319.979 483.295C284.153 461.24 287.456 390.579 324.615 371.22C328.884 368.995 332.969 367.821 337.518 366.61Z"/><path fill="#FEFEFE" d="M318.353 378.838C327.022 372.486 337.225 367.403 347.696 369.691C393.548 379.71 394.268 456.349 359.078 478.986C341.651 490.197 325.031 486.548 312.026 472.706C307.107 468.549 302.592 458.337 300.834 452.19C302.567 453.971 305.398 456.82 307.416 458.238C310.542 460.473 314.476 461.261 318.221 460.401C334.457 456.743 339.292 425.903 335.244 412.289C330.669 396.906 324.354 388.396 307.116 393.033C310.212 387.321 313.338 383.086 318.353 378.838Z"/><path fill="#7B1D7C" d="M307.116 393.033C310.212 387.321 313.338 383.086 318.353 378.838C324.365 379.971 329.297 380.865 333.93 385.37C347.588 398.65 348.817 421.63 345.777 439.292C343.852 450.477 338.759 462.586 329.053 469.112C322.683 473.432 319.223 472.911 312.026 472.706C307.107 468.549 302.592 458.337 300.834 452.19C302.567 453.971 305.398 456.82 307.416 458.238C310.542 460.473 314.476 461.261 318.221 460.401C334.457 456.743 339.292 425.903 335.244 412.289C330.669 396.906 324.354 388.396 307.116 393.033Z"/><path fill="#FEFEFE" d="M312.405 394.948C324.831 395.896 324.584 409.708 315.601 416.549C302.723 416.077 303.518 402.027 312.405 394.948Z"/><path d="M559.58 521.811C563.89 524.816 563.435 536.819 563.757 541.822C565.375 567.009 565.113 588.089 555.826 611.971C559.381 617.093 561.551 622.991 556.898 628.406C554.833 630.762 551.897 632.177 548.767 632.322C543.87 632.553 541.664 630.808 538.349 627.779C536.402 632.005 534.7 635.448 529.908 637.261C527.136 638.329 524.041 638.171 521.391 636.827C516.805 634.485 515.639 630.92 514.226 626.501C509.308 629.3 503.856 631.026 498.763 627.445C496.301 625.719 494.682 623.035 494.303 620.052C493.623 615.096 495.842 612.027 498.693 608.514C490.457 591.398 487.983 578.067 484.357 559.877C483.379 555.044 479.319 534.188 482.191 531.221C484.38 532.824 484.67 542.747 485.143 546.011C488.217 567.23 491.701 588.184 501.561 607.409C511.735 605.883 514.612 609.686 517.138 618.668C517.929 618.128 518.738 617.618 519.565 617.137C522.431 615.501 526.363 613.561 529.449 615.311C531.572 616.514 533.199 619.302 535.792 619.794C536.08 619.85 536.369 619.906 536.657 619.962C538.028 616.41 539.542 613.126 543.03 611.159C547.547 609.147 549.061 609.461 553.086 610.511C561.967 588.482 562.498 568.283 561.151 544.911C560.732 537.638 559.179 528.915 559.58 521.811Z"/><path fill="#6CC9D2" d="M523.705 618.213C528.223 616.829 533.01 619.363 534.406 623.878C535.802 628.392 533.282 633.186 528.771 634.595C524.242 636.009 519.426 633.477 518.024 628.944C516.622 624.412 519.168 619.602 523.705 618.213Z"/><path fill="#6CC9D2" d="M503.202 610.224C507.708 608.939 512.399 611.564 513.661 616.077C514.922 620.589 512.272 625.267 507.753 626.504C503.267 627.733 498.632 625.107 497.38 620.627C496.127 616.148 498.729 611.499 503.202 610.224Z"/><path fill="#6CC9D2" d="M546.011 613.189C550.521 612.005 555.134 614.708 556.307 619.22C557.48 623.732 554.766 628.339 550.251 629.502C545.751 630.66 541.163 627.957 539.994 623.46C538.825 618.963 541.517 614.368 546.011 613.189Z"/><path fill="#EBCAC9" d="M374.694 492.2C387.751 490.805 401.2 497.045 404.694 510.547C402.036 522.666 392.808 525.095 382.063 527.027C373.287 527.219 364.893 526.362 357.426 521.173C350.842 516.598 347.588 508.01 353.065 501.209C358.205 494.827 366.905 492.956 374.694 492.2Z"/><path fill="#42ACB8" d="M607.97 381.915C618.53 381.762 618.838 399.618 619.145 407.122C619.81 423.412 605.756 443.416 590.501 425.222C588.09 421.953 582.976 412.396 590.456 411.85C596.383 413.412 597.458 422.974 603.923 422.745C610.901 419.176 610.396 408.044 609.4 401.361C608.339 394.24 604.625 388.945 607.97 381.915Z"/><path fill="#42ACB8" d="M648.487 564.783C650.649 565.113 652.85 565.595 653.862 567.806C656.193 573.257 655.634 583.583 654.098 589.295C649.622 605.934 634.79 619.221 623.64 598.319C622.249 594.563 620.195 589.31 622.874 585.845C624.357 584.966 624.699 584.608 626.44 584.603C631.987 586.949 631.492 605.096 640.8 596.879C649.39 589.295 642.26 572.119 648.487 564.783Z"/><path fill="#F8A83A" d="M502.668 265.581C504.975 252.388 511.537 255.9 519.858 261.861C522.334 264.032 523.408 265.096 525.59 267.586C532.526 276.104 535.93 280.679 540.769 290.819C541.949 293.466 542.932 295.697 543.932 298.426C547.44 310.426 549.541 318.899 548.088 331.689C547.627 335.354 547.192 337.812 546.4 341.422C541.827 357.19 538.535 364.055 520.369 366.253C501.695 368.513 475.813 357.25 472.903 336.796C471.902 329.764 476.843 323.059 481.205 318.093L487.003 312.859C492.621 307.455 494.62 304.655 498.024 297.664C499.113 295.054 499.856 292.3 500.668 289.585C501.665 283.779 501.986 278.849 502.433 272.987C502.435 270.344 502.46 268.244 502.668 265.581Z"/><path fill="#F8A83A" d="M487.003 312.859C497.729 330.362 520.689 342.221 540.822 334.506C542.863 333.724 546.128 332.187 548.088 331.689C547.627 335.354 547.192 337.812 546.4 341.422C541.827 357.19 538.535 364.055 520.369 366.253C501.695 368.513 475.813 357.25 472.903 336.796C471.902 329.764 476.843 323.059 481.205 318.093L487.003 312.859Z"/><path fill="#DF6606" d="M487.003 312.859C497.729 330.362 520.689 342.221 540.822 334.506C542.863 333.724 546.128 332.187 548.088 331.689C547.627 335.354 547.192 337.812 546.4 341.422C543.807 341.473 540.757 342.41 538.227 343.134C515.709 349.573 493.139 336.606 481.205 318.093L487.003 312.859Z"/><path fill="#F8A83A" d="M502.668 265.581C504.975 252.388 511.537 255.9 519.858 261.861C522.334 264.032 523.408 265.096 525.59 267.586C532.526 276.104 535.93 280.679 540.769 290.819C531.329 296.315 521.083 297.192 510.494 294.917C507.369 294.246 502.485 292.406 500.668 289.585C501.665 283.779 501.986 278.849 502.433 272.987C502.435 270.344 502.46 268.244 502.668 265.581Z"/><path fill="#DF6606" d="M502.668 265.581C504.975 252.388 511.537 255.9 519.858 261.861C522.334 264.032 523.408 265.096 525.59 267.586C517.64 272.138 511.966 274.676 502.433 272.987C502.435 270.344 502.46 268.244 502.668 265.581Z"/><path fill="#F8A83A" d="M502.668 265.581C504.975 252.388 511.537 255.9 519.858 261.861C517.2 263.465 504.683 268.748 502.668 265.581Z"/><path fill="#DF6606" d="M498.024 297.664C499.113 295.054 499.856 292.3 500.668 289.585C502.485 292.406 507.369 294.246 510.494 294.917C521.083 297.192 531.329 296.315 540.769 290.819C541.949 293.466 542.932 295.697 543.932 298.426C526.777 306.977 515.066 306.561 498.024 297.664Z"/><path fill="#42ACB8" d="M431.917 713.053C442.361 714.108 453.442 714.62 463.916 715.024C466.089 731.497 468.254 739.249 473.979 754.637C467.418 758.567 464.757 761.369 460.882 767.989C453.126 767.995 432.94 769.223 427.377 762.447C422.656 756.697 435.734 748.832 440.042 746.221C436.354 733.316 433.518 727.199 431.917 713.053Z"/></svg>