<?xml version="1.0" encoding="utf-8" ?><svg xmlns="http://www.w3.org/2000/svg" xmlns:xlink="http://www.w3.org/1999/xlink" width="1024" height="1024" viewBox="0 0 1024 1024"><path d="M479.606 225.073C493.402 222.891 491.71 250.01 493.023 258.953L493.122 259.596C518.775 257.684 535.467 259.497 560.735 261.554C564.126 256.757 584.435 229.856 591.746 237.329C594.558 240.203 596.042 253.786 595.525 258.207C602.414 259.047 633.833 262.408 636.507 268.18C635.39 270.009 630.391 270.88 628.208 271.35C622.589 272.558 618.099 274.044 612.82 276.368C614.602 277.075 616.907 277.802 618.746 278.388C635.764 283.812 651.888 292.166 666.203 302.843C670.833 306.297 682.532 316.371 683.332 322.383L682.769 323.012C679.813 323.5 668.729 320.011 665.26 319.036C665.59 319.359 665.913 319.689 666.229 320.025C682.095 336.909 691.251 364.817 697.272 386.625C698.525 391.167 700.994 396.766 702.078 401.105C703.636 407.341 703.966 416.61 704.48 423.159C705.035 430.265 705.879 437.346 707.01 444.385C709.726 462.219 733.45 579.444 725.906 586.141L724.654 586.005C721.879 584.021 720.64 581.327 719.049 578.362C718.49 584.492 718.568 590.889 717.9 597.017C716.244 612.216 712.482 628.063 706.938 642.289C705.67 645.543 703.897 650.388 701.709 653.178C700.886 654.228 700.422 654.141 699.458 654.108C697.012 651.726 697.235 647.202 696.986 643.724C696.732 644.76 696.619 645.269 696.239 646.276C688.79 665.611 676.456 682.684 660.441 695.831C657.711 698.039 648.084 705.682 644.596 704.222C644.671 701.532 648.923 694.381 650.434 691.624C609.38 714.888 568.815 723.227 521.799 726.267C519.308 739.583 516.516 748.932 512.273 761.815C521.192 765.367 524.052 768.835 526.368 777.954C524.378 783.657 522.994 785.324 517.288 787.479C513.979 789.963 510.988 791.417 506.905 792.223C494.415 794.687 445.995 793.564 435.534 786.135C432.848 784.227 431.052 781.542 429.948 778.463C427.351 771.218 427.192 762.471 426.287 754.842C425.017 744.137 423.632 733.348 421.767 722.731C405.74 719.592 387.555 713.345 373.414 704.942C375.032 707.957 378.58 713.664 378.338 716.916C375.482 718.822 365.573 712.629 362.93 711.081C345.191 700.696 332.683 686.221 321.046 669.614C320.823 674.032 321.979 681.309 319.327 684.754C315.147 684.93 305.691 670.267 303.489 666.705C292.194 648.435 286.955 627.067 285.264 605.829C284.641 598.005 284.603 590.156 283.811 582.321C280.826 587.322 278.287 592.37 273.897 596.18C269.813 571.313 278.39 523.69 283.06 498.986C281.152 501.083 273.848 510.088 271.623 510.109C269.998 506.584 272.51 496.75 273.258 492.683C278.114 466.254 286.892 443.77 297.381 419.228C294.7 420.678 285.216 426.416 282.95 425.102C282.88 424.643 282.724 423.858 282.873 423.462C295.21 390.851 318.527 344.603 345.115 322.067C342.236 322.799 334.024 325.231 331.698 323.337C331.92 320.888 333.977 317.983 335.717 316.274C350.855 301.412 370.892 291.96 391.065 286.016C394.51 285.001 397.645 284.045 400.924 282.859C396.595 281.843 384.73 279.728 381.516 278.088L381.551 277.461C390.438 269.503 436.036 265.918 448.535 265.788C457.269 249.319 463.422 235.678 479.606 225.073Z"/><path fill="#6CC8D1" d="M506.286 261.293C523.172 259.981 538.877 262.908 555.604 263.633C561.986 263.91 570.645 261.796 577.414 261.187C595.463 259.718 613.623 261.878 630.824 267.539C626.481 268.439 610.584 271.72 609.802 276.719C611.115 278.349 629.246 284.836 633.662 286.826C640.194 289.735 646.543 293.038 652.674 296.718C664.651 304.001 670.276 309.257 679.168 319.713C678.396 319.461 677.621 319.22 676.843 318.989C673.102 317.868 664.476 315.296 661.02 317.18C660.237 319.417 666.818 325.132 668.577 327.254C680.948 342.178 686.91 361.666 692.541 379.873C686.289 372.597 679.82 366.376 670.822 362.666C642.709 351.072 611.513 365.154 599.923 392.833C593.579 408.132 593.568 425.323 599.893 440.63C605.653 454.567 616.804 465.582 630.81 471.17C643.469 476.138 659.799 476.299 672.163 470.507C689.609 462.334 696.182 449.989 702.603 433.037C706.839 455.75 710.586 479.303 714.502 502.128C705.643 501.519 702.544 499.677 695.873 493.811C693.23 491.488 691.848 489.701 688.422 490.666C683.466 495.821 697.174 505.053 701.502 506.924C707.024 509.312 710.505 509.498 716.33 509.539C719.423 535.42 724.38 553.81 724.585 580.91C723.107 578.303 720.256 572.603 716.839 573.345C715.432 575.369 715.648 592.013 715.206 596.968C713.617 614.702 708.921 632.018 701.332 648.125C700.774 645.305 700.017 640.241 698.189 638.162C697.915 638.166 697.64 638.169 697.366 638.172C693.413 645.307 690.782 653.034 686.826 660.201C681.203 670.387 674.387 679.366 665.867 687.3C660.879 691.946 655.743 695.842 650.326 699.941C651.87 696.685 655.766 689.238 654.077 685.891C652.294 686.448 643.607 692.03 641.415 693.342C637.179 695.927 632.774 698.225 628.23 700.22C600.662 712.546 552.501 723.334 522.563 723.542C523.122 720.209 526.063 704.829 523.647 703.168C521.619 704.753 521.38 708.701 521.251 711.256C520.321 729.749 514.283 745.578 509.488 763.161C517.081 766.804 521.1 768.07 523.072 776.88C522.942 779.333 521.95 783.17 519.214 783.724C517.485 782.522 513.154 767.573 504.486 768.381C503.036 769.268 503.433 768.659 502.853 769.976C505.901 773.3 510.659 774.455 513.684 778.121C514.867 779.556 515.884 781.428 515.559 783.351C515.246 785.208 513.551 787.083 511.917 787.961C501.171 793.732 453.451 789.901 440.988 785.903C438.752 785.186 436.515 784.322 435.146 782.309C430.16 774.981 426.503 736.368 424.916 725.046C424.218 720.065 424.021 714.084 421.746 709.575L421.093 709.501C419.471 713.116 420.371 715.944 420.966 719.921C411.168 718.232 401.477 714.945 392.315 711.132C389.404 709.92 372.657 701.113 370.968 701.438C370.31 701.564 370.241 702.132 369.955 702.665C370.06 706.711 372.259 710.5 374.058 714.115C358.222 706.702 343.07 694.159 331.958 680.53C328.29 676.032 324.611 668.615 320.266 664.761L319.463 664.835C316.962 667.96 317.793 677.453 317.973 681.389C292.236 651.045 286.205 619.791 286.847 581.896C286.872 580.451 286.532 577.893 285.35 576.89L284.328 577.117C280.793 579.902 277.984 585.09 275.6 589.025C275.194 558.355 278.941 528.399 286.087 498.565C286.534 496.699 286.419 495.32 285.294 493.827L284.321 493.818C280.81 495.623 276.946 500.594 274.237 503.753C276.613 477.346 288.235 446.938 298.773 422.833C299.676 420.767 301.533 417.862 299.919 415.902C296.72 415.371 289.364 419.731 286.257 421.334C299.041 387.37 319.484 350.257 345.604 325.146C346.656 324.134 349.383 321.472 349.662 320.131L348.631 319.33C344.204 318.516 340.43 319.528 336.052 320.391C350.184 304.958 366.951 296.683 386.476 290.135C391.417 288.478 399.356 286.699 403.561 284.44L403.854 283.161C402.14 278.989 392.958 277.723 388.85 277.15C406.889 271.157 428.308 268.51 447.297 268.51C440.871 285.891 437.717 302.069 440.234 320.688C443.131 342.115 467.132 351.709 486.447 348.152C497.346 346.093 506.969 339.762 513.173 330.568C526.897 310.125 514.653 304.897 503.743 289.857C499.365 283.822 495.602 269.569 494.138 262.145C498.045 261.65 502.323 261.506 506.286 261.293Z"/><path d="M452.604 501.365C452.972 501.82 453.34 502.275 453.708 502.731C452.956 506.769 448.183 516.437 446.964 519.905C436.258 550.363 427.887 589.033 436.336 620.482C447.011 620.236 449.657 623.24 452.772 632.924C461.249 627.228 465.488 627.122 473.027 633.954C477.594 625.895 479.543 624.165 488.856 624.484C504.841 595.35 514.897 560.578 523.237 528.437C524.028 525.389 524.299 521.084 526.384 518.685L527.289 518.785C528.867 522.054 522.831 542.379 521.475 547.391C519.934 554.038 517.112 562.265 514.959 568.749C508.65 588.278 500.918 607.318 491.825 625.717C494.491 628.624 496.298 631.007 496.75 635.059C497.106 638.121 496.208 641.197 494.261 643.586C492.268 646.001 489.397 647.524 486.281 647.82C481.098 648.31 478.499 646.252 474.797 643.319C472.802 647.89 470.152 651.531 464.926 652.543C461.912 653.114 458.795 652.46 456.265 650.727C452.052 647.811 451.112 644.535 450.271 639.919C444.459 643.547 437.823 646.151 431.91 640.921C429.695 638.955 428.405 636.151 428.353 633.19C428.21 628.014 430.59 625.165 433.816 621.732C424.582 591.959 434.773 527.3 452.604 501.365Z"/><path fill="#6CC8D1" d="M460.403 631.74C463.623 630.889 467.052 631.845 469.368 634.238C471.685 636.631 472.527 640.09 471.572 643.28C470.616 646.471 468.011 648.897 464.761 649.623C459.867 650.716 454.998 647.691 453.811 642.819C452.624 637.947 455.555 633.021 460.403 631.74Z"/><path fill="#6CC8D1" d="M437.803 623.753C440.938 622.88 444.3 623.771 446.593 626.082C448.885 628.392 449.749 631.761 448.852 634.89C447.955 638.019 445.437 640.418 442.269 641.163C437.505 642.283 432.721 639.386 431.505 634.646C430.289 629.906 433.088 625.064 437.803 623.753Z"/><path fill="#6CC8D1" d="M482.209 627.772C485.259 626.725 488.637 627.402 491.048 629.544C493.458 631.686 494.529 634.96 493.848 638.112C493.168 641.264 490.843 643.806 487.763 644.763C483.097 646.212 478.133 643.647 476.615 639.004C475.097 634.36 477.588 629.358 482.209 627.772Z"/><path fill="#ECC9C7" d="M594.949 483.618C602.914 482.898 610.792 483.694 618.109 487.304C625.01 490.708 631.735 498.466 627.051 506.385C623.288 512.748 615.354 515.047 608.59 516.835C575.494 520.447 559.287 491.36 594.949 483.618Z"/><path fill="#3CAEB9" d="M333.111 587.865C338.518 587.615 339.487 591.883 339.726 596.421C340.112 603.783 342.793 623.475 352.371 624.513C355.178 623.12 354.922 621.309 355.807 618.656C356.797 615.685 357.478 610.691 361.713 611.425C366.881 612.322 364.9 619.742 364.233 622.913C351.996 657.148 320.328 606.581 333.111 587.865Z"/><path fill="#3CAEB9" d="M382.435 338.425C385.039 338.295 385.919 338.26 387.711 340.261C388.977 345.741 379.023 354.328 376.973 361.857C381.277 359.199 392.43 348.429 396.784 352.797C397.34 355.241 396.335 356.983 395.172 359.064C394.808 359.435 394.442 359.804 394.074 360.171C371.393 382.786 357.129 360.413 382.435 338.425Z"/><path fill="#3CAEB9" d="M606.784 629.924C611.126 629.919 613.56 631.527 612.648 636.364C610.415 648.208 591.738 670.867 581.13 653.39C580.134 648.93 579.126 642.167 582.729 638.677C591.096 635.606 586.074 649.334 591.243 650.476C598.986 647.915 602.008 636.491 606.784 629.924Z"/><path fill="#3CAEB9" d="M330.561 425.849C343.629 426.672 331.114 446.797 338.847 449.742C344.009 449.062 345.474 442.758 349.93 440.044C350.568 439.674 351.862 439.175 352.595 439.572C357.301 442.123 354.843 445.868 353.271 448.698C334.654 475.044 320.218 446.967 330.561 425.849Z"/><path fill="#3CAEB9" d="M580.604 308.349C584.888 308.601 587.484 309.94 590.764 312.9C595.281 316.978 600.213 326.055 594.903 331.402C591.914 334.411 587.802 334.062 583.878 333.969C580.209 333.091 579.236 333.161 576.709 330.387C576.108 328.407 575.908 328.157 576.303 326.212C579.688 322.891 583.83 326.975 587.458 324.888L587.816 323.987L587.834 324.032C585.022 318.71 574.456 316.874 580.604 308.349Z"/><path fill="#FFFEFE" d="M672.646 466.818C661.255 471.989 648.645 473.738 636.504 470.243C622.996 466.307 611.654 457.076 605.057 444.649C597.649 430.631 596.09 414.252 600.721 399.088C604.997 385.253 614.159 373.909 627.048 367.396C643.175 359.247 653.893 360.365 670.324 365.529C679.846 370.134 683.926 374.227 690.767 382.172C684.882 380.495 680.519 379.12 674.235 379.963C661.081 381.725 652.603 391.4 649.168 403.783C646.023 415.05 647.452 427.102 653.146 437.32C661.599 452.15 674.777 454.677 690.314 451.761C685.956 456.768 679.072 464.599 672.646 466.818Z"/><path fill="#7B1E7F" d="M670.324 365.529C679.846 370.134 683.926 374.227 690.767 382.172C684.882 380.495 680.519 379.12 674.235 379.963C661.081 381.725 652.603 391.4 649.168 403.783C646.023 415.05 647.452 427.102 653.146 437.32C661.599 452.15 674.777 454.677 690.314 451.761C685.956 456.768 679.072 464.599 672.646 466.818C671.262 466.076 664.762 464.184 662.929 463.623C651.973 460.268 643.223 450.53 638.295 440.391C631.827 427.06 630.967 411.694 635.906 397.725C639.579 387.238 647.23 376.278 657.298 371.061C661.426 368.923 665.792 367.782 669.909 365.74L670.324 365.529Z"/><path fill="#F7A736" d="M455.133 258.711C458.888 251.512 474.767 224.934 483.832 227.534C489.456 231.494 489.839 253.238 490.759 260.643C491.333 263.564 491.95 266.476 492.608 269.379C494.828 278.192 498.35 287.011 503.499 294.537L509.392 301.711C513.161 305.753 514.83 306.981 516.652 312.212C514.443 323.773 510.966 331.989 500.766 339.127C484.697 350.374 458.553 347.736 446.838 331.303C444.311 327.757 443.111 321.734 442.769 317.336C442.276 315.793 442.347 307.631 442.343 305.515C442.853 290.302 445.756 281.558 450.895 267.501C452.028 264.785 453.803 261.405 455.133 258.711Z"/><path fill="#F7A736" d="M442.343 305.515C442.532 305.659 442.722 305.802 442.912 305.946C451.957 312.554 463.282 315.243 474.333 313.405C486.517 311.438 496.318 304.433 503.499 294.537L509.392 301.711C513.161 305.753 514.83 306.981 516.652 312.212C514.443 323.773 510.966 331.989 500.766 339.127C484.697 350.374 458.553 347.736 446.838 331.303C444.311 327.757 443.111 321.734 442.769 317.336C442.276 315.793 442.347 307.631 442.343 305.515Z"/><path fill="#DF690B" d="M442.343 305.515C442.532 305.659 442.722 305.802 442.912 305.946C451.957 312.554 463.282 315.243 474.333 313.405C486.517 311.438 496.318 304.433 503.499 294.537L509.392 301.711C493.85 319.477 477.23 328.338 452.835 321.5C449.867 320.668 445.683 317.659 442.769 317.336C442.276 315.793 442.347 307.631 442.343 305.515Z"/><path fill="#F7A736" d="M455.133 258.711C458.888 251.512 474.767 224.934 483.832 227.534C489.456 231.494 489.839 253.238 490.759 260.643C481.779 266.513 463.797 264.82 455.133 258.711Z"/><path fill="#DF690B" d="M450.895 267.501C452.028 264.785 453.803 261.405 455.133 258.711C463.797 264.82 481.779 266.513 490.759 260.643C491.333 263.564 491.95 266.476 492.608 269.379C478.054 276.903 464.915 274.621 450.895 267.501Z"/><path fill="#F7A736" d="M573.214 250.213C588.082 235.388 593.911 233.341 593.457 257.772C583.615 258.392 575.287 258.682 565.304 259.675C568.135 255.892 569.99 253.627 573.214 250.213Z"/><path fill="#DF690B" d="M573.214 250.213C579.039 254.489 586.231 257.289 593.457 257.772C583.615 258.392 575.287 258.682 565.304 259.675C568.135 255.892 569.99 253.627 573.214 250.213Z"/><path fill="#FFFEFE" d="M679.588 387.744C683.025 386.639 686.792 387.481 689.431 389.944C692.071 392.408 693.171 396.107 692.305 399.613C691.439 403.118 688.743 405.88 685.26 406.831C680.038 408.257 674.633 405.25 673.091 400.061C671.549 394.872 674.434 389.402 679.588 387.744Z"/></svg>